#!OML:ASF F:\twosubjects\two\Thursday\Session 1\Rory.ASF
:FULLY-SPECIFIED
:DEGREES
299
root -0.234518 17.93 -2.34494 -367.456 -5.51732 -355.585
lowerback 4.73011 -2.48177 -5.40283
upperback 3.90401 -3.47168 -2.82726
thorax 1.5263 -1.82177 0.217954
lowerneck -15.1555 3.57286 1.56761
upperneck 15.0751 5.81476 -7.16118
head 7.3989 2.20609 -1.96733
rclavicle -9.36773e-015 -3.97569e-016
rhumerus -32.5634 9.06183 -64.1594
rradius 118.868
rwrist -10.7061
rhand 8.00023 19.8754
rfingers 7.12502
rthumb 33.2272 -7.07658
lclavicle -9.36773e-015 -3.97569e-016
lhumerus -27.6722 -63.6501 109.862
lradius 106.314
lwrist 77.0453
lhand -17.8606 52.2924
lfingers 7.12502
lthumb 8.40486 82.1052
rfemur -15.2192 16.166 7.7152
rtibia 29.1294
rfoot -13.4939 0.757441
rtoes -20.3591
lfemur -7.3963 -1.67157 -18.4749
ltibia 30.9344
lfoot -15.1791 3.71257
ltoes -0.0242154
300
root -0.145413 17.9213 -2.38572 -367.424 -6.35939 -355.421
lowerback 4.94875 -2.57418 -5.51479
upperback 3.91586 -3.61635 -2.69791
thorax 1.43912 -1.89702 0.427097
lowerneck -14.7019 3.64898 1.01934
upperneck 14.5727 5.93091 -6.77721
head 7.13297 2.28909 -1.74584
rclavicle -3.10601e-015 1.27222e-014
rhumerus -32.8586 9.52532 -64.7672
rradius 118.035
rwrist -10.2926
rhand 7.11594 19.9023
rfingers 7.12502
rthumb 32.386 -7.22542
lclavicle -3.10601e-015 1.27222e-014
lhumerus -27.9033 -63.6494 109.466
lradius 106.217
lwrist 77.5096
lhand -18.9793 51.6488
lfingers 7.12502
lthumb 7.32513 81.502
rfemur -15.5746 16.5455 7.23847
rtibia 28.8068
rfoot -13.4577 1.17439
rtoes -20.7438
lfemur -7.70498 -0.661687 -18.7696
ltibia 31.2961
lfoot -15.3059 3.69201
ltoes 0.367736
301
root -0.0609585 17.9199 -2.42936 -367.379 -7.37282 -355.617
lowerback 5.15156 -2.29773 -5.18607
upperback 4.19792 -3.23963 -2.66915
thorax 1.58178 -1.70967 0.265033
lowerneck -15.2564 3.41166 1.17683
upperneck 14.5162 5.55009 -6.6565
head 7.19461 2.11654 -1.76659
rclavicle -7.56624e-014 -1.23246e-014
rhumerus -33.3694 8.86993 -65.5203
rradius 117.153
rwrist -9.98674
rhand 5.63944 20.1737
rfingers 7.12502
rthumb 30.9797 -7.23169
lclavicle -7.56624e-014 -1.23246e-014
lhumerus -27.3549 -64.2616 108.808
lradius 105.61
lwrist 77.7879
lhand -18.5578 51.9356
lfingers 7.12502
lthumb 7.732 81.7742
rfemur -15.9005 17.3105 7.17376
rtibia 28.361
rfoot -13.3451 1.4785
rtoes -19.9553
lfemur -8.03708 0.586395 -18.5965
ltibia 31.6742
lfoot -15.1814 3.64262
ltoes -2.84311
302
root 0.0241944 17.9283 -2.47188 -367.222 -8.46062 -355.496
lowerback 5.26321 -2.22882 -5.30319
upperback 4.27796 -3.15829 -2.58606
thorax 1.61094 -1.67517 0.415129
lowerneck -15.5597 3.44803 1.3539
upperneck 14.5739 5.60037 -6.85611
head 7.27967 2.1237 -1.85123
rclavicle 5.38209e-014 1.35174e-014
rhumerus -33.7029 9.04449 -66.131
rradius 116.248
rwrist -9.84665
rhand 4.50377 20.4206
rfingers 7.12502
rthumb 29.8965 -7.18535
lclavicle 5.38209e-014 1.35174e-014
lhumerus -27.2776 -63.6004 108.74
lradius 104.759
lwrist 77.4298
lhand -17.85 52.0222
lfingers 7.12502
lthumb 8.41508 81.8346
rfemur -16.3816 18.1801 6.69361
rtibia 27.7946
rfoot -13.2428 1.67464
rtoes -19.3671
lfemur -8.52282 1.67912 -18.8256
ltibia 32.0032
lfoot -15.1559 3.72605
ltoes -2.69035
303
root 0.110222 17.9373 -2.5194 -366.852 -9.42347 -355.36
lowerback 5.28858 -2.24459 -5.42115
upperback 4.19455 -3.19079 -2.52311
thorax 1.52255 -1.69227 0.549864
lowerneck -15.3907 3.54072 1.47504
upperneck 14.3169 5.70012 -6.97152
head 7.17818 2.17785 -1.89943
rclavicle 4.78326e-014 1.31198e-014
rhumerus -33.9505 9.32395 -66.7576
rradius 115.353
rwrist -9.67087
rhand 3.71541 20.2465
rfingers 7.12502
rthumb 29.144 -7.49244
lclavicle 4.78326e-014 1.31198e-014
lhumerus -27.6165 -62.7376 109.094
lradius 103.981
lwrist 76.7208
lhand -18.0986 51.9799
lfingers 7.12502
lthumb 8.17516 81.8018
rfemur -17.0575 18.8096 6.11853
rtibia 27.2074
rfoot -13.3786 1.57104
rtoes -20.1076
lfemur -9.17747 2.29133 -19.1552
ltibia 32.1598
lfoot -15.3779 3.88717
ltoes -1.35034
304
root 0.203153 17.943 -2.56691 -366.499 -10.3703 -355.525
lowerback 5.21483 -2.15531 -5.10154
upperback 4.2423 -3.05404 -2.44836
thorax 1.59151 -1.62017 0.441006
lowerneck -15.4843 3.48443 1.56452
upperneck 14.2973 5.61202 -7.03304
head 7.1884 2.13332 -1.94275
rclavicle -3.30976e-014 -1.27222e-014
rhumerus -34.3167 9.26453 -67.4642
rradius 114.539
rwrist -9.44503
rhand 2.16702 20.146
rfingers 7.12502
rthumb 27.6643 -7.83967
lclavicle -3.30976e-014 -1.27222e-014
lhumerus -27.2731 -62.3976 108.856
lradius 103.235
lwrist 76.2021
lhand -18.428 52.5914
lfingers 7.12502
lthumb 7.85723 82.4254
rfemur -17.5891 19.1587 5.91068
rtibia 26.6696
rfoot -13.621 1.26024
rtoes -22.7597
lfemur -9.64782 2.80542 -19.2012
ltibia 32.1396
lfoot -15.3619 4.28875
ltoes -3.00935
